<svg aria-hidden="true" style="position: absolute; width: 0; height: 0; overflow: hidden;" version="1.1" xmlns="http://www.w3.org/2000/svg" xmlns:xlink="http://www.w3.org/1999/xlink">
<defs>
<symbol id="icon-available" viewBox="0 0 32 32">
<path fill="none" stroke="#eee3de" style="stroke: var(--color1, #eee3de)" stroke-linejoin="miter" stroke-linecap="butt" stroke-miterlimit="4" stroke-width="0.8421" d="M16 0.421c8.604 0 15.579 6.975 15.579 15.579s-6.975 15.579-15.579 15.579c-8.604 0-15.579-6.975-15.579-15.579s6.975-15.579 15.579-15.579z"></path>
<path fill="#eee3de" style="fill: var(--color1, #eee3de)" d="M15.701 23.662v-16.743h1.006v16.743h-1.006zM18.809 10.404c-0.24-0.132-0.497-0.24-0.773-0.323-0.264-0.084-0.539-0.144-0.826-0.18-0.275-0.036-0.557-0.054-0.844-0.054-0.323 0-0.659 0.030-1.006 0.090s-0.671 0.168-0.97 0.323c-0.299 0.144-0.545 0.347-0.737 0.611s-0.287 0.593-0.287 0.988c0 0.383 0.096 0.713 0.287 0.988 0.204 0.275 0.467 0.515 0.79 0.719s0.689 0.389 1.096 0.557c0.407 0.168 0.826 0.335 1.258 0.503s0.85 0.359 1.258 0.575c0.407 0.204 0.773 0.449 1.096 0.737 0.323 0.275 0.581 0.617 0.773 1.024 0.192 0.395 0.287 0.868 0.287 1.419 0 0.599-0.12 1.12-0.359 1.563-0.228 0.431-0.545 0.79-0.952 1.078-0.407 0.275-0.862 0.479-1.365 0.611s-1.024 0.198-1.563 0.198c-0.563 0-1.102-0.066-1.617-0.198-0.503-0.132-0.982-0.335-1.437-0.611-0.443-0.275-0.85-0.629-1.222-1.060l0.629-0.629c0.252 0.335 0.581 0.617 0.988 0.844s0.838 0.401 1.293 0.521c0.455 0.108 0.886 0.162 1.293 0.162 0.431 0 0.838-0.048 1.222-0.144s0.725-0.246 1.024-0.449c0.311-0.204 0.551-0.473 0.719-0.808 0.18-0.335 0.269-0.743 0.269-1.222 0-0.407-0.096-0.755-0.287-1.042-0.18-0.299-0.437-0.557-0.773-0.773-0.323-0.228-0.689-0.431-1.096-0.611-0.395-0.18-0.808-0.353-1.24-0.521s-0.85-0.347-1.258-0.539c-0.395-0.204-0.761-0.431-1.096-0.683-0.323-0.252-0.581-0.551-0.773-0.898s-0.287-0.755-0.287-1.222c0-0.563 0.114-1.042 0.341-1.437 0.24-0.395 0.551-0.713 0.934-0.952 0.395-0.24 0.832-0.413 1.311-0.521s0.958-0.162 1.437-0.162c0.323 0 0.641 0.024 0.952 0.072s0.617 0.12 0.916 0.216c0.311 0.096 0.605 0.222 0.88 0.377l-0.287 0.862z"></path>
</symbol>
<symbol id="icon-safe" viewBox="0 0 32 32">
<path fill="#eee3de" style="fill: var(--color1, #eee3de)" d="M11.228 14.638h9.544c0.465 0 0.842 0.377 0.842 0.842v6.695c0 0.465-0.377 0.842-0.842 0.842h-9.544c-0.465 0-0.842-0.377-0.842-0.842v-6.695c0-0.465 0.377-0.842 0.842-0.842z"></path>
<path fill="none" stroke="#eee3de" style="stroke: var(--color1, #eee3de)" stroke-linejoin="miter" stroke-linecap="butt" stroke-miterlimit="4" stroke-width="0.8421" d="M11.79 14.717c-0.324-7.541 8.313-7.751 8.313 0"></path>
<path fill="#010101" style="fill: var(--color2, #010101)" d="M16.648 17.99c0 0.347-0.29 0.628-0.648 0.628s-0.648-0.281-0.648-0.628c0-0.347 0.29-0.628 0.648-0.628s0.648 0.281 0.648 0.628z"></path>
<path fill="none" stroke="#010101" style="stroke: var(--color2, #010101)" stroke-linejoin="miter" stroke-linecap="butt" stroke-miterlimit="4" stroke-width="0.5614" d="M15.935 20.085v-2.514"></path>
<path fill="none" stroke="#eee3de" style="stroke: var(--color1, #eee3de)" stroke-linejoin="miter" stroke-linecap="butt" stroke-miterlimit="4" stroke-width="0.8421" d="M31.579 16c0 8.604-6.975 15.579-15.579 15.579s-15.579-6.975-15.579-15.579c0-8.604 6.975-15.579 15.579-15.579s15.579 6.975 15.579 15.579z"></path>
</symbol>
<symbol id="icon-location" viewBox="0 0 32 32">
<path fill="none" stroke="#eee3de" style="stroke: var(--color1, #eee3de)" stroke-linejoin="miter" stroke-linecap="butt" stroke-miterlimit="4" stroke-width="0.8421" d="M16.338 23.018c-17.895-18.658 17.102-18.769 0 0z"></path>
<path fill="none" stroke="#eee3de" style="stroke: var(--color1, #eee3de)" stroke-linejoin="miter" stroke-linecap="butt" stroke-miterlimit="4" stroke-width="0.8421" d="M18.001 14.285c0 0.956-0.815 1.762-1.861 1.762s-1.861-0.806-1.861-1.762c0-0.956 0.815-1.762 1.861-1.762s1.861 0.806 1.861 1.762z"></path>
<path fill="none" stroke="#eee3de" style="stroke: var(--color1, #eee3de)" stroke-linejoin="miter" stroke-linecap="butt" stroke-miterlimit="4" stroke-width="0.8421" d="M31.719 16c0 8.604-6.975 15.579-15.579 15.579s-15.579-6.975-15.579-15.579c0-8.604 6.975-15.579 15.579-15.579s15.579 6.975 15.579 15.579z"></path>
</symbol>
<symbol id="icon-succsefful" viewBox="0 0 32 32">
<path fill="none" stroke="#eee3de" style="stroke: var(--color1, #eee3de)" stroke-linejoin="miter" stroke-linecap="butt" stroke-miterlimit="4" stroke-width="0.7869" d="M30.689 14.951c0 8.040-6.518 14.557-14.557 14.557s-14.557-6.518-14.557-14.557c0-8.040 6.518-14.557 14.557-14.557s14.557 6.518 14.557 14.557z"></path>
<path fill="none" stroke="#eee3de" style="stroke: var(--color1, #eee3de)" stroke-linejoin="miter" stroke-linecap="butt" stroke-miterlimit="4" stroke-width="0.7869" d="M8.525 15.433l3.148 5.551 12.066-12.59"></path>
</symbol>
<symbol id="icon-person" viewBox="0 0 32 32">
<path fill="#eee3de" style="fill: var(--color1, #eee3de)" d="M16.009 16.077c4.402 0 7.968-3.664 7.968-8.15 0-4.417-3.566-7.927-7.968-7.927-4.384 0-7.986 3.561-7.968 7.961 0.018 4.469 3.566 8.116 7.968 8.116zM16.009 13.081c-2.511 0-4.639-2.243-4.639-5.119-0.018-2.808 2.11-4.965 4.639-4.965 2.547 0 4.639 2.123 4.639 4.931 0 2.876-2.11 5.154-4.639 5.154zM4.657 32h22.686c3.147 0 4.657-0.942 4.657-2.962 0-4.708-6.24-10.975-15.991-10.975s-16.009 6.266-16.009 10.975c0 2.020 1.51 2.962 4.657 2.962zM4.093 29.004c-0.437 0-0.6-0.137-0.6-0.445 0-2.62 4.493-7.499 12.516-7.499 8.005 0 12.498 4.88 12.498 7.499 0 0.308-0.164 0.445-0.6 0.445h-23.814z"></path>
</symbol>
<symbol id="icon-arrowright" viewBox="0 0 31 32">
<path fill="#eee3de" style="fill: var(--color1, #eee3de)" d="M5.522 31.686h20.328c3.642 0 5.523-1.88 5.523-5.472v-20.428c0-3.592-1.88-5.472-5.523-5.472h-20.328c-3.626 0-5.522 1.863-5.522 5.472v20.428c0 3.592 1.897 5.472 5.522 5.472zM5.741 28.346c-1.544 0-2.4-0.806-2.4-2.434v-19.824c0-1.628 0.856-2.434 2.4-2.434h19.891c1.528 0 2.4 0.806 2.4 2.434v19.824c0 1.628-0.873 2.434-2.4 2.434h-19.891zM24.373 15.958c0-0.453-0.185-0.806-0.554-1.192l-5.707-5.623c-0.285-0.269-0.604-0.403-1.024-0.403-0.772 0-1.343 0.588-1.343 1.376 0 0.42 0.168 0.772 0.436 1.024l2.014 1.964 1.897 1.511-3.441-0.151h-8.191c-0.839 0-1.46 0.638-1.46 1.511 0 0.856 0.604 1.494 1.46 1.494h8.191l3.458-0.151-1.897 1.527-2.031 1.93c-0.285 0.252-0.436 0.621-0.436 1.024 0 0.789 0.571 1.393 1.343 1.393 0.42 0 0.739-0.134 1.024-0.42l5.707-5.606c0.352-0.352 0.554-0.722 0.554-1.209z"></path>
</symbol>
<symbol id="icon-arrowleft" viewBox="0 0 31 32">
<path fill="#eee3de" style="fill: var(--color1, #eee3de)" d="M5.522 31.686h20.328c3.642 0 5.523-1.88 5.523-5.472v-20.428c0-3.592-1.88-5.472-5.523-5.472h-20.328c-3.626 0-5.522 1.863-5.522 5.472v20.428c0 3.592 1.897 5.472 5.522 5.472zM5.741 28.346c-1.544 0-2.4-0.806-2.4-2.434v-19.824c0-1.628 0.856-2.434 2.4-2.434h19.891c1.528 0 2.4 0.806 2.4 2.434v19.824c0 1.628-0.873 2.434-2.4 2.434h-19.891zM7.033 15.958c0 0.487 0.201 0.856 0.571 1.209l5.69 5.606c0.285 0.285 0.604 0.42 1.024 0.42 0.772 0 1.36-0.604 1.36-1.393 0-0.403-0.168-0.772-0.453-1.024l-2.031-1.93-1.88-1.527 3.441 0.151h8.192c0.856 0 1.46-0.638 1.46-1.494 0-0.873-0.604-1.511-1.46-1.511h-8.191l-3.441 0.151 1.897-1.511 2.014-1.964c0.269-0.252 0.453-0.604 0.453-1.024 0-0.789-0.587-1.376-1.36-1.376-0.42 0-0.739 0.134-1.024 0.403l-5.69 5.623c-0.386 0.386-0.571 0.739-0.571 1.192z"></path>
</symbol>
</defs>
</svg>
